<svg height="512pt" viewBox="0 0 512 512" width="512pt" xmlns="http://www.w3.org/2000/svg"><path d="m401.214844 330.316406c6.921875 17.394532 9.703125 36.160156 8.121094 54.816406-.191407 4.15625 2.539062 7.878907 6.558593 8.941407s8.238281-.820313 10.125-4.527344c24.1875-45.109375 24.1875-115.992187 24.1875-115.992187 9.621094 9.621093 16.683594 32.484374 21.007813 51.285156.917968 3.777344 4.195312 6.507812 8.074218 6.730468 3.875.222657 7.445313-2.113281 8.789063-5.757812 14.992187-39.277344 23.085937-80.847656 23.921875-122.878906 0-53.9375-24.453125-79.359375-40.078125-90.21875-2.585937-1.722656-5.890625-1.957032-8.695313-.617188-2.804687 1.335938-4.699218 4.054688-4.988281 7.148438-3.332031 33.148437-28.214843 60.085937-60.996093 66.03125h-282.484376c-32.78125-5.945313-57.664062-32.882813-60.996093-66.03125-.289063-3.09375-2.183594-5.8125-4.988281-7.148438-2.804688-1.339844-6.109376-1.105468-8.695313.617188-15.625 10.859375-40.078125 36.28125-40.078125 90.21875.835938 42.03125 8.929688 83.601562 23.921875 122.878906 1.34375 3.644531 4.914063 5.980469 8.789063 5.757812 3.878906-.222656 7.15625-2.953124 8.074218-6.730468 4.324219-18.800782 11.386719-41.664063 21.007813-51.285156 0 0 0 70.882812 24.1875 115.992187 1.886719 3.707031 6.105469 5.589844 10.125 4.527344s6.75-4.785157 6.558593-8.941407c-1.640624-19.078124 1.324219-38.273437 8.652344-55.964843zm0 0" fill="#2c3e50"/><path d="m343.894531 397.140625c-.011719.121094-.039062.238281-.078125.351563v.089843c-4.941406 20.109375-7.851562 40.660157-8.695312 61.351563 0 0 43.890625 26.480468 61.449218 17.652344 17.558594-8.824219 26.332032-26.480469 52.675782-8.824219 19.226562 12.894531 5.691406 30.488281-3.011719 39.050781-3.3125 3.261719-7.773437 5.085938-12.421875 5.085938h-132.792969c-8.878906.195312-16.605469-6.046876-18.28125-14.769532-.90625-5.734375 1.011719-11.554687 5.148438-15.632812 6.992187-6.351563 10.199219-15.871094 8.472656-25.160156-2.425781-12.117188-6.101563-23.949219-10.964844-35.308594l-58.613281-.175782c-4.910156 11.527344-8.609375 23.535157-11.042969 35.832032-1.664062 9.140625 1.527344 18.492187 8.429688 24.714844 4.15625 4.070312 6.085937 9.898437 5.179687 15.644531-1.636718 8.773437-9.398437 15.066406-18.324218 14.855469h-132.835938c-4.648438 0-9.109375-1.824219-12.421875-5.085938-8.703125-8.5625-22.238281-26.15625-3.011719-39.050781 26.34375-17.65625 35.117188 0 52.675782 8.824219 17.558593 8.828124 61.449218-17.652344 61.449218-17.652344-.871094-20.839844-3.8125-41.539063-8.773437-61.792969zm0 0" fill="#f09372"/><path d="m368.992188 151.910156c8.078124-54.125-8.949219-108.976562-46.253907-149.011718-2.851562-2.976563-7.308593-3.75-10.996093-1.90625s-5.742188 5.875-5.070313 9.941406c3.617187 27.984375 5.382813 71.679687-12.183594 99.398437l-76.625.441407c-17.917969-27.632813-16.152343-71.679688-12.535156-99.839844.671875-4.066406-1.382813-8.097656-5.070313-9.941406s-8.144531-1.070313-10.996093 1.90625c-37.765625 40.546874-54.730469 96.238281-45.988281 150.953124zm0 0" fill="#fdd7ad"/><path d="m415.425781 264.726562c0 87.753907-71.140625 158.894532-158.894531 158.894532-87.757812 0-158.898438-71.140625-158.898438-158.894532 0-87.757812 71.140626-158.898437 158.898438-158.898437 87.753906 0 158.894531 71.140625 158.894531 158.898437zm0 0" fill="#a5a5a4"/><path d="m397.769531 264.726562c.011719 33.375-11.847656 65.664063-33.453125 91.101563-3.792968 4.570313-7.894531 8.875-12.273437 12.886719h-.085938c-54.09375 49.839844-137.433593 49.648437-191.296875-.441406-4.40625-4.011719-8.535156-8.316407-12.355468-12.886719-40.101563-47.824219-44.0625-116.292969-9.746094-168.421875 34.316406-52.125 98.777344-75.550782 158.554687-57.617188 59.777344 17.929688 100.699219 72.96875 100.65625 135.378906zm0 0" fill="#fff"/><path d="m306.316406 176.449219c26.265625 21.121093 36.347656 56.515625 25.148438 88.304687-11.195313 31.792969-41.230469 53.058594-74.933594 53.058594-33.707031 0-63.742188-21.265625-74.9375-53.058594-11.195312-31.789062-1.117188-67.183594 25.148438-88.304687" fill="#4482c3"/><path d="m256.53125 326.519531c-37.433594.015625-70.796875-23.601562-83.230469-58.910156-12.429687-35.308594-1.21875-74.617187 27.96875-98.054687 2.460938-1.96875 5.789063-2.476563 8.730469-1.328126 2.9375 1.144532 5.039062 3.773438 5.515625 6.890626.476563 3.121093-.75 6.257812-3.210937 8.226562-16.730469 13.304688-26.453126 33.527344-26.394532 54.898438 0 39.003906 31.617188 70.621093 70.621094 70.621093 39 0 70.617188-31.617187 70.617188-70.621093.066406-21.363282-9.636719-41.585938-26.347657-54.898438-2.464843-1.96875-3.6875-5.105469-3.210937-8.226562.472656-3.117188 2.578125-5.746094 5.515625-6.890626 2.9375-1.148437 6.265625-.640624 8.730469 1.328126 29.191406 23.445312 40.402343 62.765624 27.957031 98.078124-12.441407 35.3125-45.824219 58.921876-83.261719 58.886719zm0 0" fill="#35495e"/><path d="m291.308594 202.933594c0 19.5-15.808594 35.308594-35.308594 35.308594s-35.308594-15.808594-35.308594-35.308594c0-19.503906 15.808594-35.3125 35.308594-35.3125s35.308594 15.808594 35.308594 35.3125zm0 0" fill="#2c3e50"/><path d="m273.65625 202.933594c0 9.75-7.90625 17.652344-17.65625 17.652344s-17.65625-7.902344-17.65625-17.652344 7.90625-17.65625 17.65625-17.65625 17.65625 7.90625 17.65625 17.65625zm0 0" fill="#ecf0f1"/><path d="m326.621094 185.277344h-141.242188c-4.875 0-8.828125-3.953125-8.828125-8.828125s3.953125-8.828125 8.828125-8.828125h141.242188c4.875 0 8.828125 3.953125 8.828125 8.828125s-3.953125 8.828125-8.828125 8.828125zm0 0" fill="#35495e"/><g fill="#c03a2b"><path d="m172.578125 360.328125-3.617187 2.382813-8.300782 5.5625c-4.40625-4.011719-8.535156-8.316407-12.355468-12.886719l8.03125-5.386719-14.125-28.335938c-.628907-1.230468-.960938-2.589843-.96875-3.972656v-17.65625c0-4.875 3.953124-8.828125 8.828124-8.828125s8.828126 3.953125 8.828126 8.828125v15.539063l15.003906 30.1875 1.679687 3.265625c1.992188 3.984375.707031 8.832031-3.003906 11.300781zm0 0"/><path d="m194.207031 370.65625c-.949219 0-1.890625-.152344-2.789062-.457031l-26.484375-8.828125c-4.628906-1.542969-7.136719-6.546875-5.59375-11.175782 1.539062-4.632812 6.542968-7.136718 11.171875-5.597656l23.015625 7.664063 14.390625-7.195313c4.363281-2.179687 9.664062-.410156 11.84375 3.953125 2.179687 4.363281.410156 9.667969-3.953125 11.847657l-17.65625 8.828124c-1.222656.621094-2.574219.953126-3.945313.960938zm0 0"/><path d="m370.757812 300.035156v17.65625c-.007812 1.382813-.339843 2.742188-.96875 3.972656l-14.125 28.335938 8.652344 5.828125c-3.792968 4.570313-7.894531 8.875-12.273437 12.886719h-.085938l-8.917969-6.003906-3.617187-2.382813c-3.710937-2.46875-4.996094-7.316406-3.003906-11.300781l1.679687-3.265625 15.003906-30.1875v-15.539063c0-4.875 3.953126-8.828125 8.828126-8.828125s8.828124 3.953125 8.828124 8.828125zm0 0"/><path d="m317.792969 370.65625c-1.367188.015625-2.714844-.285156-3.945313-.882812l-17.65625-8.828126c-4.363281-2.179687-6.132812-7.480468-3.953125-11.84375 2.179688-4.363281 7.480469-6.136718 11.84375-3.957031l14.390625 7.195313 23.015625-7.664063c4.628907-1.539062 9.632813.964844 11.171875 5.597657 1.542969 4.632812-.964844 9.636718-5.59375 11.175781l-26.484375 8.828125c-.902343.277344-1.84375.40625-2.789062.378906zm0 0"/></g></svg>